# Blender v2.83.2 OBJ File: 'Road.blend'
# www.blender.org
mtllib Road.mtl
o Cube
v 6.806454 0.218374 -13.441952
v 6.806454 -0.218374 -13.441952
v 6.806454 0.218374 13.441952
v 6.806454 -0.218374 13.441952
v -6.806454 0.218374 -13.441952
v -6.806454 -0.218374 -13.441952
v -6.806454 0.218374 13.441952
v -6.806454 -0.218374 13.441952
v 4.083872 -0.218374 -13.441952
v 1.361291 -0.218374 -13.441952
v -1.361291 -0.218374 -13.441952
v -4.083872 -0.218374 -13.441952
v 4.083872 0.218374 13.441952
v 1.361291 0.218374 13.441952
v -1.361291 0.218374 13.441952
v -4.083872 0.218374 13.441952
v -4.083872 -0.218374 13.441952
v -1.361291 -0.218374 13.441952
v 1.361291 -0.218374 13.441952
v 4.083872 -0.218374 13.441952
v -4.083872 0.218374 -13.441952
v -1.361291 0.218374 -13.441952
v 1.361291 0.218374 -13.441952
v 4.083872 0.218374 -13.441952
v 0.453764 -0.218374 -13.441952
v -0.453764 -0.218374 -13.441952
v 0.453764 0.218374 13.441952
v -0.453764 0.218374 13.441952
v -0.453764 -0.218374 13.441952
v 0.453764 -0.218374 13.441952
v -0.453764 0.218374 -13.441952
v 0.453764 0.218374 -13.441952
v -4.083872 0.768668 13.441952
v -6.806454 0.768668 13.441952
v 6.806454 0.768668 -13.441952
v 6.806454 0.768668 13.441952
v -6.806454 0.768668 -13.441952
v 4.083872 0.768668 -13.441952
v 4.083872 0.768668 13.441952
v -4.083872 0.768668 -13.441952
v -6.806454 -0.218374 -10.753562
v -6.806454 -0.218374 -8.065171
v -6.806454 -0.218374 -5.376781
v -6.806454 -0.218374 -2.688390
v -6.806454 -0.218374 0.000000
v -6.806454 -0.218374 2.688390
v -6.806454 -0.218374 5.376781
v -6.806454 -0.218374 8.065171
v -6.806454 -0.218374 10.753562
v 6.806454 0.218374 -10.753562
v 6.806454 0.218374 -8.065171
v 6.806454 0.218374 -5.376781
v 6.806454 0.218374 -2.688390
v 6.806454 0.218374 0.000000
v 6.806454 0.218374 2.688390
v 6.806454 0.218374 5.376781
v 6.806454 0.218374 8.065171
v 6.806454 0.218374 10.753562
v -6.806454 0.218374 10.753562
v -6.806454 0.218374 8.065171
v -6.806454 0.218374 5.376781
v -6.806454 0.218374 2.688390
v -6.806454 0.218374 0.000000
v -6.806454 0.218374 -2.688390
v -6.806454 0.218374 -5.376781
v -6.806454 0.218374 -8.065171
v -6.806454 0.218374 -10.753562
v 6.806454 -0.218374 10.753562
v 6.806454 -0.218374 8.065171
v 6.806454 -0.218374 5.376781
v 6.806454 -0.218374 2.688390
v 6.806454 -0.218374 0.000000
v 6.806454 -0.218374 -2.688390
v 6.806454 -0.218374 -5.376781
v 6.806454 -0.218374 -8.065171
v 6.806454 -0.218374 -10.753562
v -4.083872 -0.218374 -10.753562
v -4.083872 -0.218374 -8.065171
v -4.083872 -0.218374 -5.376781
v -4.083872 -0.218374 -2.688390
v -4.083872 -0.218374 0.000000
v -4.083872 -0.218374 2.688390
v -4.083872 -0.218374 5.376781
v -4.083872 -0.218374 8.065171
v -4.083872 -0.218374 10.753562
v -1.361291 -0.218374 -10.753562
v -1.361291 -0.218374 -8.065171
v -1.361291 -0.218374 -5.376781
v -1.361291 -0.218374 -2.688390
v -1.361291 -0.218374 0.000000
v -1.361291 -0.218374 2.688390
v -1.361291 -0.218374 5.376781
v -1.361291 -0.218374 8.065171
v -1.361291 -0.218374 10.753562
v 1.361291 -0.218374 -10.753562
v 1.361291 -0.218374 -8.065171
v 1.361291 -0.218374 -5.376781
v 1.361291 -0.218374 -2.688390
v 1.361291 -0.218374 0.000000
v 1.361291 -0.218374 2.688390
v 1.361291 -0.218374 5.376781
v 1.361291 -0.218374 8.065171
v 1.361291 -0.218374 10.753562
v 4.083872 -0.218374 -10.753562
v 4.083872 -0.218374 -8.065171
v 4.083872 -0.218374 -5.376781
v 4.083872 -0.218374 -2.688390
v 4.083872 -0.218374 0.000000
v 4.083872 -0.218374 2.688390
v 4.083872 -0.218374 5.376781
v 4.083872 -0.218374 8.065171
v 4.083872 -0.218374 10.753562
v 4.083872 0.218374 -10.753562
v 4.083872 0.218374 -8.065171
v 4.083872 0.218374 -5.376781
v 4.083872 0.218374 -2.688390
v 4.083872 0.218374 0.000000
v 4.083872 0.218374 2.688390
v 4.083872 0.218374 5.376781
v 4.083872 0.218374 8.065171
v 4.083872 0.218374 10.753562
v 1.361291 0.218374 -10.753562
v 1.361291 0.218374 -8.065171
v 1.361291 0.218374 -5.376781
v 1.361291 0.218374 -2.688390
v 1.361291 0.218374 0.000000
v 1.361291 0.218374 2.688390
v 1.361291 0.218374 5.376781
v 1.361291 0.218374 8.065171
v 1.361291 0.218374 10.753562
v -1.361291 0.218374 -10.753562
v -1.361291 0.218374 -8.065171
v -1.361291 0.218374 -5.376781
v -1.361291 0.218374 -2.688390
v -1.361291 0.218374 0.000000
v -1.361291 0.218374 2.688390
v -1.361291 0.218374 5.376781
v -1.361291 0.218374 8.065171
v -1.361291 0.218374 10.753562
v -4.083872 0.218374 -10.753562
v -4.083872 0.218374 -8.065171
v -4.083872 0.218374 -5.376781
v -4.083872 0.218374 -2.688390
v -4.083872 0.218374 0.000000
v -4.083872 0.218374 2.688390
v -4.083872 0.218374 5.376781
v -4.083872 0.218374 8.065171
v -4.083872 0.218374 10.753562
v 0.453764 0.218374 -10.753562
v 0.453764 0.218374 -8.065171
v 0.453764 0.218374 -5.376781
v 0.453764 0.218374 -2.688390
v 0.453764 0.218374 0.000000
v 0.453764 0.218374 2.688390
v 0.453764 0.218374 5.376781
v 0.453764 0.218374 8.065171
v 0.453764 0.218374 10.753562
v -0.453764 0.218374 -10.753562
v -0.453764 0.218374 -8.065171
v -0.453764 0.218374 -5.376781
v -0.453764 0.218374 -2.688390
v -0.453764 0.218374 0.000000
v -0.453764 0.218374 2.688390
v -0.453764 0.218374 5.376781
v -0.453764 0.218374 8.065171
v -0.453764 0.218374 10.753562
v -0.453764 -0.218374 -10.753562
v -0.453764 -0.218374 -8.065171
v -0.453764 -0.218374 -5.376781
v -0.453764 -0.218374 -2.688390
v -0.453764 -0.218374 0.000000
v -0.453764 -0.218374 2.688390
v -0.453764 -0.218374 5.376781
v -0.453764 -0.218374 8.065171
v -0.453764 -0.218374 10.753562
v 0.453764 -0.218374 -10.753562
v 0.453764 -0.218374 -8.065171
v 0.453764 -0.218374 -5.376781
v 0.453764 -0.218374 -2.688390
v 0.453764 -0.218374 0.000000
v 0.453764 -0.218374 2.688390
v 0.453764 -0.218374 5.376781
v 0.453764 -0.218374 8.065171
v 0.453764 -0.218374 10.753562
v 6.806454 0.768668 -10.753562
v 6.806454 0.768668 -8.065171
v 6.806454 0.768668 -5.376781
v 6.806454 0.768668 -2.688390
v 6.806454 0.768668 0.000000
v 6.806454 0.768668 2.688390
v 6.806454 0.768668 5.376781
v 6.806454 0.768668 8.065171
v 6.806454 0.768668 10.753562
v -6.806454 0.768668 10.753562
v -6.806454 0.768668 8.065171
v -6.806454 0.768668 5.376781
v -6.806454 0.768668 2.688390
v -6.806454 0.768668 0.000000
v -6.806454 0.768668 -2.688390
v -6.806454 0.768668 -5.376781
v -6.806454 0.768668 -8.065171
v -6.806454 0.768668 -10.753562
v 4.083872 0.768668 -10.753562
v 4.083872 0.768668 -8.065171
v 4.083872 0.768668 -5.376781
v 4.083872 0.768668 -2.688390
v 4.083872 0.768668 0.000000
v 4.083872 0.768668 2.688390
v 4.083872 0.768668 5.376781
v 4.083872 0.768668 8.065171
v 4.083872 0.768668 10.753562
v -4.083872 0.768668 -10.753562
v -4.083872 0.768668 -8.065171
v -4.083872 0.768668 -5.376781
v -4.083872 0.768668 -2.688390
v -4.083872 0.768668 0.000000
v -4.083872 0.768668 2.688390
v -4.083872 0.768668 5.376781
v -4.083872 0.768668 8.065171
v -4.083872 0.768668 10.753562
vt 0.375000 0.950000
vt 0.625000 0.950000
vt 0.625000 1.000000
vt 0.375000 1.000000
vt 0.375000 0.225000
vt 0.625000 0.225000
vt 0.625000 0.250000
vt 0.375000 0.250000
vt 0.325000 0.725000
vt 0.375000 0.725000
vt 0.375000 0.750000
vt 0.325000 0.750000
vt 0.625000 0.725000
vt 0.625000 0.750000
vt 0.375000 0.450000
vt 0.625000 0.450000
vt 0.625000 0.500000
vt 0.375000 0.500000
vt 0.625000 0.300000
vt 0.375000 0.300000
vt 0.625000 0.350000
vt 0.375000 0.350000
vt 0.375000 0.383333
vt 0.625000 0.383333
vt 0.625000 0.400000
vt 0.375000 0.400000
vt 0.125000 0.725000
vt 0.175000 0.725000
vt 0.175000 0.750000
vt 0.125000 0.750000
vt 0.225000 0.725000
vt 0.225000 0.750000
vt 0.258333 0.725000
vt 0.275000 0.725000
vt 0.275000 0.750000
vt 0.258333 0.750000
vt 0.625000 0.800000
vt 0.375000 0.800000
vt 0.625000 0.850000
vt 0.375000 0.850000
vt 0.375000 0.883333
vt 0.625000 0.883333
vt 0.625000 0.900000
vt 0.375000 0.900000
vt 0.625000 0.025000
vt 0.625000 0.000000
vt 0.625000 0.000000
vt 0.625000 0.025000
vt 0.675000 0.725000
vt 0.725000 0.725000
vt 0.725000 0.750000
vt 0.675000 0.750000
vt 0.758333 0.725000
vt 0.775000 0.725000
vt 0.775000 0.750000
vt 0.758333 0.750000
vt 0.825000 0.725000
vt 0.825000 0.750000
vt 0.741667 0.725000
vt 0.741667 0.750000
vt 0.625000 0.866667
vt 0.375000 0.866667
vt 0.241667 0.725000
vt 0.241667 0.750000
vt 0.625000 0.366667
vt 0.375000 0.366667
vt 0.625000 0.525000
vt 0.625000 0.500000
vt 0.625000 0.525000
vt 0.625000 0.750000
vt 0.625000 0.800000
vt 0.625000 0.450000
vt 0.625000 0.950000
vt 0.625000 1.000000
vt 0.625000 0.250000
vt 0.625000 0.300000
vt 0.625000 0.725000
vt 0.625000 0.700000
vt 0.625000 0.700000
vt 0.625000 0.675000
vt 0.625000 0.675000
vt 0.625000 0.650000
vt 0.625000 0.650000
vt 0.625000 0.625000
vt 0.625000 0.625000
vt 0.625000 0.600000
vt 0.625000 0.600000
vt 0.625000 0.575000
vt 0.625000 0.575000
vt 0.625000 0.550000
vt 0.625000 0.550000
vt 0.241667 0.500000
vt 0.258333 0.500000
vt 0.258333 0.525000
vt 0.241667 0.525000
vt 0.258333 0.550000
vt 0.241667 0.550000
vt 0.258333 0.575000
vt 0.241667 0.575000
vt 0.258333 0.600000
vt 0.241667 0.600000
vt 0.258333 0.625000
vt 0.241667 0.625000
vt 0.258333 0.650000
vt 0.241667 0.650000
vt 0.258333 0.675000
vt 0.241667 0.675000
vt 0.258333 0.700000
vt 0.241667 0.700000
vt 0.225000 0.500000
vt 0.225000 0.525000
vt 0.225000 0.550000
vt 0.225000 0.575000
vt 0.225000 0.600000
vt 0.225000 0.625000
vt 0.225000 0.650000
vt 0.225000 0.675000
vt 0.225000 0.700000
vt 0.741667 0.525000
vt 0.758333 0.525000
vt 0.758333 0.550000
vt 0.741667 0.550000
vt 0.741667 0.575000
vt 0.758333 0.575000
vt 0.758333 0.600000
vt 0.741667 0.600000
vt 0.741667 0.625000
vt 0.758333 0.625000
vt 0.758333 0.650000
vt 0.741667 0.650000
vt 0.741667 0.675000
vt 0.758333 0.675000
vt 0.758333 0.700000
vt 0.741667 0.700000
vt 0.725000 0.500000
vt 0.741667 0.500000
vt 0.725000 0.525000
vt 0.725000 0.550000
vt 0.725000 0.575000
vt 0.725000 0.600000
vt 0.725000 0.625000
vt 0.725000 0.650000
vt 0.725000 0.675000
vt 0.725000 0.700000
vt 0.775000 0.500000
vt 0.825000 0.500000
vt 0.825000 0.525000
vt 0.775000 0.525000
vt 0.825000 0.550000
vt 0.775000 0.550000
vt 0.825000 0.575000
vt 0.775000 0.575000
vt 0.825000 0.600000
vt 0.775000 0.600000
vt 0.825000 0.625000
vt 0.775000 0.625000
vt 0.825000 0.650000
vt 0.775000 0.650000
vt 0.825000 0.675000
vt 0.775000 0.675000
vt 0.825000 0.700000
vt 0.775000 0.700000
vt 0.758333 0.500000
vt 0.675000 0.500000
vt 0.675000 0.525000
vt 0.675000 0.550000
vt 0.675000 0.575000
vt 0.675000 0.600000
vt 0.675000 0.625000
vt 0.675000 0.650000
vt 0.675000 0.675000
vt 0.675000 0.700000
vt 0.625000 0.225000
vt 0.625000 0.200000
vt 0.625000 0.200000
vt 0.625000 0.175000
vt 0.625000 0.175000
vt 0.625000 0.150000
vt 0.625000 0.150000
vt 0.625000 0.125000
vt 0.625000 0.125000
vt 0.625000 0.100000
vt 0.625000 0.100000
vt 0.625000 0.075000
vt 0.625000 0.075000
vt 0.625000 0.050000
vt 0.625000 0.050000
vt 0.275000 0.500000
vt 0.325000 0.500000
vt 0.325000 0.525000
vt 0.275000 0.525000
vt 0.325000 0.550000
vt 0.275000 0.550000
vt 0.325000 0.575000
vt 0.275000 0.575000
vt 0.325000 0.600000
vt 0.275000 0.600000
vt 0.325000 0.625000
vt 0.275000 0.625000
vt 0.325000 0.650000
vt 0.275000 0.650000
vt 0.325000 0.675000
vt 0.275000 0.675000
vt 0.325000 0.700000
vt 0.275000 0.700000
vt 0.175000 0.500000
vt 0.175000 0.525000
vt 0.175000 0.550000
vt 0.175000 0.575000
vt 0.175000 0.600000
vt 0.175000 0.625000
vt 0.175000 0.650000
vt 0.175000 0.675000
vt 0.175000 0.700000
vt 0.125000 0.500000
vt 0.125000 0.525000
vt 0.125000 0.550000
vt 0.125000 0.575000
vt 0.125000 0.600000
vt 0.125000 0.625000
vt 0.125000 0.650000
vt 0.125000 0.675000
vt 0.125000 0.700000
vt 0.375000 0.525000
vt 0.375000 0.550000
vt 0.375000 0.575000
vt 0.375000 0.600000
vt 0.375000 0.625000
vt 0.375000 0.650000
vt 0.375000 0.675000
vt 0.375000 0.700000
vt 0.375000 0.000000
vt 0.375000 0.025000
vt 0.375000 0.050000
vt 0.375000 0.075000
vt 0.375000 0.100000
vt 0.375000 0.125000
vt 0.375000 0.150000
vt 0.375000 0.175000
vt 0.375000 0.200000
vt 0.675000 0.750000
vt 0.675000 0.725000
vt 0.825000 0.725000
vt 0.875000 0.725000
vt 0.875000 0.750000
vt 0.825000 0.750000
vt 0.825000 0.500000
vt 0.825000 0.525000
vt 0.825000 0.700000
vt 0.825000 0.675000
vt 0.825000 0.650000
vt 0.825000 0.625000
vt 0.825000 0.600000
vt 0.825000 0.575000
vt 0.825000 0.550000
vt 0.675000 0.500000
vt 0.675000 0.525000
vt 0.675000 0.550000
vt 0.675000 0.575000
vt 0.675000 0.600000
vt 0.675000 0.625000
vt 0.675000 0.650000
vt 0.675000 0.675000
vt 0.675000 0.700000
vt 0.875000 0.500000
vt 0.875000 0.525000
vt 0.875000 0.550000
vt 0.875000 0.575000
vt 0.875000 0.600000
vt 0.875000 0.625000
vt 0.875000 0.650000
vt 0.875000 0.675000
vt 0.875000 0.700000
vn 0.0000 0.0000 1.0000
vn -1.0000 0.0000 0.0000
vn 0.0000 -1.0000 0.0000
vn 1.0000 0.0000 0.0000
vn 0.0000 0.0000 -1.0000
vn 0.0000 1.0000 0.0000
g Cube_Cube_Material
usemtl Material
s off
f 17/1/1 16/2/1 7/3/1 8/4/1
f 41/5/2 67/6/2 5/7/2 6/8/2
f 112/9/3 68/10/3 4/11/3 20/12/3
f 68/10/4 58/13/4 3/14/4 4/11/4
f 9/15/5 24/16/5 1/17/5 2/18/5
f 6/8/5 5/7/5 21/19/5 12/20/5
f 12/20/5 21/19/5 22/21/5 11/22/5
f 25/23/5 32/24/5 23/25/5 10/26/5
f 10/26/5 23/25/5 24/16/5 9/15/5
f 49/27/3 85/28/3 17/29/3 8/30/3
f 85/28/3 94/31/3 18/32/3 17/29/3
f 184/33/3 103/34/3 19/35/3 30/36/3
f 103/34/3 112/9/3 20/12/3 19/35/3
f 4/11/1 3/14/1 13/37/1 20/38/1
f 20/38/1 13/37/1 14/39/1 19/40/1
f 29/41/1 28/42/1 15/43/1 18/44/1
f 18/44/1 15/43/1 16/2/1 17/1/1
f 59/45/2 7/46/2 34/47/2 194/48/2
f 121/49/6 130/50/6 14/51/6 13/52/6
f 166/53/6 139/54/6 15/55/6 28/56/6
f 139/54/6 148/57/6 16/58/6 15/55/6
f 130/50/6 157/59/6 27/60/6 14/51/6
f 157/59/6 166/53/6 28/56/6 27/60/6
f 19/40/1 14/39/1 27/61/1 30/62/1
f 30/62/1 27/61/1 28/42/1 29/41/1
f 94/31/3 175/63/3 29/64/3 18/32/3
f 175/63/3 184/33/3 30/36/3 29/64/3
f 11/22/5 22/21/5 31/65/5 26/66/5
f 26/66/5 31/65/5 32/24/5 25/23/5
f 50/67/4 1/17/4 35/68/4 185/69/4
f 13/37/1 3/14/1 36/70/1 39/71/1
f 1/17/5 24/16/5 38/72/5 35/68/5
f 7/3/1 16/2/1 33/73/1 34/74/1
f 21/19/5 5/7/5 37/75/5 40/76/5
f 3/14/4 58/13/4 193/77/4 36/70/4
f 58/13/4 57/78/4 192/79/4 193/77/4
f 57/78/4 56/80/4 191/81/4 192/79/4
f 56/80/4 55/82/4 190/83/4 191/81/4
f 55/82/4 54/84/4 189/85/4 190/83/4
f 54/84/4 53/86/4 188/87/4 189/85/4
f 53/86/4 52/88/4 187/89/4 188/87/4
f 52/88/4 51/90/4 186/91/4 187/89/4
f 51/90/4 50/67/4 185/69/4 186/91/4
f 26/92/3 25/93/3 176/94/3 167/95/3
f 167/95/3 176/94/3 177/96/3 168/97/3
f 168/97/3 177/96/3 178/98/3 169/99/3
f 169/99/3 178/98/3 179/100/3 170/101/3
f 170/101/3 179/100/3 180/102/3 171/103/3
f 171/103/3 180/102/3 181/104/3 172/105/3
f 172/105/3 181/104/3 182/106/3 173/107/3
f 173/107/3 182/106/3 183/108/3 174/109/3
f 174/109/3 183/108/3 184/33/3 175/63/3
f 11/110/3 26/92/3 167/95/3 86/111/3
f 86/111/3 167/95/3 168/97/3 87/112/3
f 87/112/3 168/97/3 169/99/3 88/113/3
f 88/113/3 169/99/3 170/101/3 89/114/3
f 89/114/3 170/101/3 171/103/3 90/115/3
f 90/115/3 171/103/3 172/105/3 91/116/3
f 91/116/3 172/105/3 173/107/3 92/117/3
f 92/117/3 173/107/3 174/109/3 93/118/3
f 93/118/3 174/109/3 175/63/3 94/31/3
f 149/119/6 158/120/6 159/121/6 150/122/6
f 151/123/6 160/124/6 161/125/6 152/126/6
f 153/127/6 162/128/6 163/129/6 154/130/6
f 155/131/6 164/132/6 165/133/6 156/134/6
f 23/135/6 32/136/6 149/119/6 122/137/6
f 122/137/6 149/119/6 150/122/6 123/138/6
f 123/138/6 150/122/6 151/123/6 124/139/6
f 124/139/6 151/123/6 152/126/6 125/140/6
f 125/140/6 152/126/6 153/127/6 126/141/6
f 126/141/6 153/127/6 154/130/6 127/142/6
f 127/142/6 154/130/6 155/131/6 128/143/6
f 128/143/6 155/131/6 156/134/6 129/144/6
f 129/144/6 156/134/6 157/59/6 130/50/6
f 22/145/6 21/146/6 140/147/6 131/148/6
f 131/148/6 140/147/6 141/149/6 132/150/6
f 132/150/6 141/149/6 142/151/6 133/152/6
f 133/152/6 142/151/6 143/153/6 134/154/6
f 134/154/6 143/153/6 144/155/6 135/156/6
f 135/156/6 144/155/6 145/157/6 136/158/6
f 136/158/6 145/157/6 146/159/6 137/160/6
f 137/160/6 146/159/6 147/161/6 138/162/6
f 138/162/6 147/161/6 148/57/6 139/54/6
f 31/163/6 22/145/6 131/148/6 158/120/6
f 158/120/6 131/148/6 132/150/6 159/121/6
f 159/121/6 132/150/6 133/152/6 160/124/6
f 160/124/6 133/152/6 134/154/6 161/125/6
f 161/125/6 134/154/6 135/156/6 162/128/6
f 162/128/6 135/156/6 136/158/6 163/129/6
f 163/129/6 136/158/6 137/160/6 164/132/6
f 164/132/6 137/160/6 138/162/6 165/133/6
f 165/133/6 138/162/6 139/54/6 166/53/6
f 24/164/6 23/135/6 122/137/6 113/165/6
f 113/165/6 122/137/6 123/138/6 114/166/6
f 114/166/6 123/138/6 124/139/6 115/167/6
f 115/167/6 124/139/6 125/140/6 116/168/6
f 116/168/6 125/140/6 126/141/6 117/169/6
f 117/169/6 126/141/6 127/142/6 118/170/6
f 118/170/6 127/142/6 128/143/6 119/171/6
f 119/171/6 128/143/6 129/144/6 120/172/6
f 120/172/6 129/144/6 130/50/6 121/49/6
f 5/7/2 67/6/2 202/173/2 37/75/2
f 67/6/2 66/174/2 201/175/2 202/173/2
f 66/174/2 65/176/2 200/177/2 201/175/2
f 65/176/2 64/178/2 199/179/2 200/177/2
f 64/178/2 63/180/2 198/181/2 199/179/2
f 63/180/2 62/182/2 197/183/2 198/181/2
f 62/182/2 61/184/2 196/185/2 197/183/2
f 61/184/2 60/186/2 195/187/2 196/185/2
f 60/186/2 59/45/2 194/48/2 195/187/2
f 10/188/3 9/189/3 104/190/3 95/191/3
f 95/191/3 104/190/3 105/192/3 96/193/3
f 96/193/3 105/192/3 106/194/3 97/195/3
f 97/195/3 106/194/3 107/196/3 98/197/3
f 98/197/3 107/196/3 108/198/3 99/199/3
f 99/199/3 108/198/3 109/200/3 100/201/3
f 100/201/3 109/200/3 110/202/3 101/203/3
f 101/203/3 110/202/3 111/204/3 102/205/3
f 102/205/3 111/204/3 112/9/3 103/34/3
f 25/93/3 10/188/3 95/191/3 176/94/3
f 176/94/3 95/191/3 96/193/3 177/96/3
f 177/96/3 96/193/3 97/195/3 178/98/3
f 178/98/3 97/195/3 98/197/3 179/100/3
f 179/100/3 98/197/3 99/199/3 180/102/3
f 180/102/3 99/199/3 100/201/3 181/104/3
f 181/104/3 100/201/3 101/203/3 182/106/3
f 182/106/3 101/203/3 102/205/3 183/108/3
f 183/108/3 102/205/3 103/34/3 184/33/3
f 12/206/3 11/110/3 86/111/3 77/207/3
f 77/207/3 86/111/3 87/112/3 78/208/3
f 78/208/3 87/112/3 88/113/3 79/209/3
f 79/209/3 88/113/3 89/114/3 80/210/3
f 80/210/3 89/114/3 90/115/3 81/211/3
f 81/211/3 90/115/3 91/116/3 82/212/3
f 82/212/3 91/116/3 92/117/3 83/213/3
f 83/213/3 92/117/3 93/118/3 84/214/3
f 84/214/3 93/118/3 94/31/3 85/28/3
f 6/215/3 12/206/3 77/207/3 41/216/3
f 41/216/3 77/207/3 78/208/3 42/217/3
f 42/217/3 78/208/3 79/209/3 43/218/3
f 43/218/3 79/209/3 80/210/3 44/219/3
f 44/219/3 80/210/3 81/211/3 45/220/3
f 45/220/3 81/211/3 82/212/3 46/221/3
f 46/221/3 82/212/3 83/213/3 47/222/3
f 47/222/3 83/213/3 84/214/3 48/223/3
f 48/223/3 84/214/3 85/28/3 49/27/3
f 2/18/4 1/17/4 50/67/4 76/224/4
f 76/224/4 50/67/4 51/90/4 75/225/4
f 75/225/4 51/90/4 52/88/4 74/226/4
f 74/226/4 52/88/4 53/86/4 73/227/4
f 73/227/4 53/86/4 54/84/4 72/228/4
f 72/228/4 54/84/4 55/82/4 71/229/4
f 71/229/4 55/82/4 56/80/4 70/230/4
f 70/230/4 56/80/4 57/78/4 69/231/4
f 69/231/4 57/78/4 58/13/4 68/10/4
f 9/189/3 2/18/3 76/224/3 104/190/3
f 104/190/3 76/224/3 75/225/3 105/192/3
f 105/192/3 75/225/3 74/226/3 106/194/3
f 106/194/3 74/226/3 73/227/3 107/196/3
f 107/196/3 73/227/3 72/228/3 108/198/3
f 108/198/3 72/228/3 71/229/3 109/200/3
f 109/200/3 71/229/3 70/230/3 110/202/3
f 110/202/3 70/230/3 69/231/3 111/204/3
f 111/204/3 69/231/3 68/10/3 112/9/3
f 8/232/2 7/46/2 59/45/2 49/233/2
f 49/233/2 59/45/2 60/186/2 48/234/2
f 48/234/2 60/186/2 61/184/2 47/235/2
f 47/235/2 61/184/2 62/182/2 46/236/2
f 46/236/2 62/182/2 63/180/2 45/237/2
f 45/237/2 63/180/2 64/178/2 44/238/2
f 44/238/2 64/178/2 65/176/2 43/239/2
f 43/239/2 65/176/2 66/174/2 42/240/2
f 42/240/2 66/174/2 67/6/2 41/5/2
g Cube_Cube_Material.001
usemtl Material.001
f 32/136/6 31/163/6 158/120/6 149/119/6
f 150/122/6 159/121/6 160/124/6 151/123/6
f 152/126/6 161/125/6 162/128/6 153/127/6
f 154/130/6 163/129/6 164/132/6 155/131/6
f 156/134/6 165/133/6 166/53/6 157/59/6
g Cube_Cube_Material.002
usemtl Material.002
f 121/49/2 13/52/2 39/241/2 211/242/2
f 220/243/6 194/244/6 34/245/6 33/246/6
f 193/77/6 211/242/6 39/241/6 36/70/6
f 140/147/4 21/146/4 40/247/4 212/248/4
f 16/58/4 148/57/4 220/243/4 33/246/4
f 148/57/4 147/161/4 219/249/4 220/243/4
f 147/161/4 146/159/4 218/250/4 219/249/4
f 146/159/4 145/157/4 217/251/4 218/250/4
f 145/157/4 144/155/4 216/252/4 217/251/4
f 144/155/4 143/153/4 215/253/4 216/252/4
f 143/153/4 142/151/4 214/254/4 215/253/4
f 142/151/4 141/149/4 213/255/4 214/254/4
f 141/149/4 140/147/4 212/248/4 213/255/4
f 35/68/6 38/256/6 203/257/6 185/69/6
f 185/69/6 203/257/6 204/258/6 186/91/6
f 186/91/6 204/258/6 205/259/6 187/89/6
f 187/89/6 205/259/6 206/260/6 188/87/6
f 188/87/6 206/260/6 207/261/6 189/85/6
f 189/85/6 207/261/6 208/262/6 190/83/6
f 190/83/6 208/262/6 209/263/6 191/81/6
f 191/81/6 209/263/6 210/264/6 192/79/6
f 192/79/6 210/264/6 211/242/6 193/77/6
f 40/247/6 37/265/6 202/266/6 212/248/6
f 212/248/6 202/266/6 201/267/6 213/255/6
f 213/255/6 201/267/6 200/268/6 214/254/6
f 214/254/6 200/268/6 199/269/6 215/253/6
f 215/253/6 199/269/6 198/270/6 216/252/6
f 216/252/6 198/270/6 197/271/6 217/251/6
f 217/251/6 197/271/6 196/272/6 218/250/6
f 218/250/6 196/272/6 195/273/6 219/249/6
f 219/249/6 195/273/6 194/244/6 220/243/6
f 24/164/2 113/165/2 203/257/2 38/256/2
f 113/165/2 114/166/2 204/258/2 203/257/2
f 114/166/2 115/167/2 205/259/2 204/258/2
f 115/167/2 116/168/2 206/260/2 205/259/2
f 116/168/2 117/169/2 207/261/2 206/260/2
f 117/169/2 118/170/2 208/262/2 207/261/2
f 118/170/2 119/171/2 209/263/2 208/262/2
f 119/171/2 120/172/2 210/264/2 209/263/2
f 120/172/2 121/49/2 211/242/2 210/264/2
